<?xml version="1.0" encoding="UTF-8"?>
<svg width="135px" height="190px" viewBox="0 0 135 190" version="1.1" xmlns="http://www.w3.org/2000/svg" xmlns:xlink="http://www.w3.org/1999/xlink">
    <!-- Generator: Sketch 55.2 (78181) - https://sketchapp.com -->
    <title>编组</title>
    <desc>Created with Sketch.</desc>
    <g id="Page-1" stroke="none" stroke-width="1" fill="none" fill-rule="evenodd">
        <g id="展示图" transform="translate(-1009.000000, -4269.000000)">
            <g id="Group-2" transform="translate(0.000000, -0.175208)">
                <g id="Group-4" transform="translate(267.000000, 3798.175208)">
                    <g id="Group-5" transform="translate(-0.000000, 77.000000)">
                        <g id="编组" transform="translate(743.000000, 393.000000)">
                            <polygon id="Fill-1" fill="#000000" points="106.816 190.428 110.522 190.428 110.522 155.261 106.816 155.261"></polygon>
                            <polygon id="Stroke-2" stroke="#000000" points="106.817 190.427 110.523 190.427 110.523 155.26 106.817 155.26"></polygon>
                            <polygon id="Fill-4" fill="#000000" points="65.108 190.427 70.45 190.427 70.45 169.993 65.108 169.993"></polygon>
                            <polygon id="Stroke-5" stroke="#000000" points="65.107 190.426 70.449 190.426 70.449 169.992 65.107 169.992"></polygon>
                            <polygon id="Fill-7" fill="#000000" points="23.781 190.427 29.123 190.427 29.123 124.641 23.781 124.641"></polygon>
                            <g transform="translate(0.000000, 0.927000)">
                                <path d="M132.6793,94.694 C132.6793,59.449 121.2953,30.877 107.2523,30.877 C93.2103,30.877 81.8263,59.449 81.8263,94.694 C81.8263,129.939 93.2103,158.51 107.2523,158.51 C121.2953,158.51 132.6793,129.939 132.6793,94.694" id="Fill-8" fill="#FCCF34"></path>
                                <path d="M132.6793,94.694 C132.6793,59.449 121.2953,30.877 107.2523,30.877 C93.2103,30.877 81.8263,59.449 81.8263,94.694 C81.8263,129.939 93.2103,158.51 107.2523,158.51 C121.2953,158.51 132.6793,129.939 132.6793,94.694 Z" id="Stroke-10" stroke="#000000"></path>
                                <g transform="translate(106.000000, 30.000000)">
                                    <path d="M2.0563,128.1877 L0.6963,0.8577" id="Fill-12" fill="#FFFFFF"></path>
                                    <path d="M2.0563,128.1877 L0.6963,0.8577" id="Stroke-14" stroke="#000000"></path>
                                </g>
                                <path d="M106.9996,74.9816 L87.2116,53.9676" id="Stroke-15" stroke="#000000"></path>
                                <path d="M84.9293,64.0124 L107.3023,87.2984" id="Stroke-17" stroke="#000000"></path>
                                <path d="M107.5299,98.256 L130.5879,71.089" id="Stroke-19" stroke="#000000"></path>
                                <path d="M107.5299,104.1916 L131.9569,77.9386" id="Stroke-21" stroke="#000000"></path>
                                <path d="M107.7584,119.944 L132.8704,95.288" id="Stroke-23" stroke="#000000"></path>
                                <path d="M81.733,91.6359 L107.539,131.1089" id="Stroke-25" stroke="#000000"></path>
                                <path d="M92.3961,113.0041 C92.3961,77.7591 81.0121,49.1881 66.9691,49.1881 C52.9271,49.1881 41.5431,77.7591 41.5431,113.0041 C41.5431,148.2491 52.9271,176.8211 66.9691,176.8211 C81.0121,176.8211 92.3961,148.2491 92.3961,113.0041" id="Fill-27" fill="#E76557"></path>
                                <path d="M92.3961,113.0041 C92.3961,77.7591 81.0121,49.1881 66.9691,49.1881 C52.9271,49.1881 41.5431,77.7591 41.5431,113.0041 C41.5431,148.2491 52.9271,176.8211 66.9691,176.8211 C81.0121,176.8211 92.3961,148.2491 92.3961,113.0041 Z" id="Stroke-29" stroke="#000000"></path>
                                <g transform="translate(66.000000, 49.000000)">
                                    <path d="M0.4137,0.1681 L1.7727,127.4981" id="Fill-31" fill="#E76557"></path>
                                    <path d="M0.4137,0.1681 L1.7727,127.4981" id="Stroke-33" stroke="#000000"></path>
                                </g>
                                <g transform="translate(46.000000, 72.000000)">
                                    <path d="M20.7164,21.2921 L0.9284,0.2781" id="Fill-34" fill="#E76557"></path>
                                    <path d="M20.7164,21.2921 L0.9284,0.2781" id="Stroke-36" stroke="#000000"></path>
                                </g>
                                <g transform="translate(44.000000, 82.000000)">
                                    <path d="M0.6461,0.3229 L23.0191,23.6089" id="Fill-37" fill="#E76557"></path>
                                    <path d="M0.6461,0.3229 L23.0191,23.6089" id="Stroke-39" stroke="#000000"></path>
                                </g>
                                <g transform="translate(67.000000, 89.000000)">
                                    <path d="M0.2467,27.5666 L23.3047,0.3996" id="Fill-40" fill="#E76557"></path>
                                    <path d="M0.2467,27.5666 L23.3047,0.3996" id="Stroke-42" stroke="#000000"></path>
                                </g>
                                <g transform="translate(67.000000, 96.000000)">
                                    <path d="M0.2467,26.5021 L24.6737,0.2491" id="Fill-43" fill="#E76557"></path>
                                    <path d="M0.2467,26.5021 L24.6737,0.2491" id="Stroke-45" stroke="#000000"></path>
                                </g>
                                <g transform="translate(67.000000, 113.000000)">
                                    <path d="M0.4752,25.2545 L25.5872,0.5985" id="Fill-46" fill="#E76557"></path>
                                    <path d="M0.4752,25.2545 L25.5872,0.5985" id="Stroke-48" stroke="#000000"></path>
                                </g>
                                <g transform="translate(41.000000, 109.000000)">
                                    <path d="M0.4498,0.9464 L26.2558,40.4194" id="Fill-49" fill="#E76557"></path>
                                    <path d="M0.4498,0.9464 L26.2558,40.4194" id="Stroke-51" stroke="#000000"></path>
                                </g>
                                <path d="M51.3649,64.3893 C51.3649,29.1443 39.9809,0.5733 25.9379,0.5733 C11.8959,0.5733 0.5109,29.1443 0.5109,64.3893 C0.5109,99.6343 11.8959,128.2063 25.9379,128.2063 C39.9809,128.2063 51.3649,99.6343 51.3649,64.3893" id="Fill-52" fill="#00A66E"></path>
                                <path d="M51.3649,64.3893 C51.3649,29.1443 39.9809,0.5733 25.9379,0.5733 C11.8959,0.5733 0.5109,29.1443 0.5109,64.3893 C0.5109,99.6343 11.8959,128.2063 25.9379,128.2063 C39.9809,128.2063 51.3649,99.6343 51.3649,64.3893 Z" id="Stroke-54" stroke="#000000"></path>
                                <g transform="translate(25.000000, 0.000000)">
                                    <path d="M0.382,0.5539 L1.741,127.8839" id="Fill-56" fill="#00A66E"></path>
                                    <path d="M0.382,0.5539 L1.741,127.8839" id="Stroke-58" stroke="#000000"></path>
                                </g>
                                <g transform="translate(5.000000, 23.000000)">
                                    <path d="M20.6852,21.6774 L0.8972,0.6634" id="Fill-59" fill="#00A66E"></path>
                                    <path d="M20.6852,21.6774 L0.8972,0.6634" id="Stroke-61" stroke="#000000"></path>
                                </g>
                                <g transform="translate(3.000000, 33.000000)">
                                    <path d="M0.6144,0.7082 L22.9874,23.9942" id="Fill-62" fill="#00A66E"></path>
                                    <path d="M0.6144,0.7082 L22.9874,23.9942" id="Stroke-64" stroke="#000000"></path>
                                </g>
                                <g transform="translate(26.000000, 40.000000)">
                                    <path d="M0.2155,27.9518 L23.2735,0.7848" id="Fill-65" fill="#00A66E"></path>
                                    <path d="M0.2155,27.9518 L23.2735,0.7848" id="Stroke-67" stroke="#000000"></path>
                                </g>
                                <g transform="translate(26.000000, 47.000000)">
                                    <path d="M0.2155,26.8874 L24.6425,0.6344" id="Fill-68" fill="#00A66E"></path>
                                    <path d="M0.2155,26.8874 L24.6425,0.6344" id="Stroke-70" stroke="#000000"></path>
                                </g>
                                <g transform="translate(26.000000, 64.000000)">
                                    <path d="M0.444,25.6398 L25.556,0.9838" id="Fill-71" fill="#00A66E"></path>
                                    <path d="M0.444,25.6398 L25.556,0.9838" id="Stroke-73" stroke="#000000"></path>
                                </g>
                                <g transform="translate(0.000000, 61.000000)">
                                    <path d="M0.4186,0.3317 L26.2246,39.8047" id="Fill-74" fill="#00A66E"></path>
                                    <path d="M0.4186,0.3317 L26.2246,39.8047" id="Stroke-76" stroke="#000000"></path>
                                </g>
                            </g>
                        </g>
                    </g>
                </g>
            </g>
        </g>
    </g>
</svg>